HIERARCHY
ROOT Hips
{
 OFFSET 0.000000 0.000000 0.000000
 CHANNELS 6 Xposition Yposition Zposition Yrotation Xrotation Zrotation
 JOINT Chest
 {
  OFFSET 0.000000 9.588913 -0.003946
  CHANNELS 3 Yrotation Xrotation Zrotation
  JOINT Chest2
  {
   OFFSET 0.000000 9.541882 0.008053
   CHANNELS 3 Yrotation Xrotation Zrotation
   JOINT Chest3
   {
    OFFSET 0.000000 9.501360 0.000000
    CHANNELS 3 Yrotation Xrotation Zrotation
    JOINT Chest4
    {
     OFFSET 0.000000 9.491660 0.000000
     CHANNELS 3 Yrotation Xrotation Zrotation
     JOINT Neck
     {
      OFFSET 0.000000 14.331917 0.000000
      CHANNELS 3 Yrotation Xrotation Zrotation
      JOINT Head
      {
       OFFSET 0.000000 8.884799 0.017034
       CHANNELS 3 Yrotation Xrotation Zrotation
       End Site
       {
        OFFSET 0.000000 16.896195 0.008993
       }
      }
     }
     JOINT RightCollar
     {
      OFFSET -2.923010 9.499495 0.000000
      CHANNELS 3 Yrotation Xrotation Zrotation
      JOINT RightShoulder
      {
       OFFSET -13.795216 0.000000 0.000000
       CHANNELS 3 Yrotation Xrotation Zrotation
       JOINT RightElbow
       {
        OFFSET -30.272209 0.000000 0.000000
        CHANNELS 3 Yrotation Xrotation Zrotation
        JOINT RightWrist
        {
         OFFSET -24.478199 0.000000 0.000000
         CHANNELS 3 Yrotation Xrotation Zrotation
         End Site
         {
          OFFSET -18.090752 0.000000 0.000000
         }
        }
       }
      }
     }
     JOINT LeftCollar
     {
      OFFSET 2.923010 9.499495 0.000000
      CHANNELS 3 Yrotation Xrotation Zrotation
      JOINT LeftShoulder
      {
       OFFSET 13.795216 0.000000 0.000000
       CHANNELS 3 Yrotation Xrotation Zrotation
       JOINT LeftElbow
       {
        OFFSET 30.272209 0.000000 0.000000
        CHANNELS 3 Yrotation Xrotation Zrotation
        JOINT LeftWrist
        {
         OFFSET 24.478199 0.000000 0.000000
         CHANNELS 3 Yrotation Xrotation Zrotation
         End Site
         {
          OFFSET 18.090752 0.000000 0.000000
         }
        }
       }
      }
     }
    }
   }
  }
 }
 JOINT RightHip
 {
  OFFSET -7.826875 0.019532 0.001973
  CHANNELS 3 Yrotation Xrotation Zrotation
  JOINT RightKnee
  {
   OFFSET 0.000000 -40.546152 -0.001885
   CHANNELS 3 Yrotation Xrotation Zrotation
   JOINT RightAnkle
   {
    OFFSET 0.000000 -39.417092 -0.003189
    CHANNELS 3 Yrotation Xrotation Zrotation
    JOINT RightToe
    {
     OFFSET 0.000000 -7.579396 17.243563
     CHANNELS 3 Yrotation Xrotation Zrotation
     End Site
     {
      OFFSET 0.000000 -1.500329 6.694466
     }
    }
   }
  }
 }
 JOINT LeftHip
 {
  OFFSET 7.826875 0.019532 0.001973
  CHANNELS 3 Yrotation Xrotation Zrotation
  JOINT LeftKnee
  {
   OFFSET 0.000000 -40.546152 -0.001885
   CHANNELS 3 Yrotation Xrotation Zrotation
   JOINT LeftAnkle
   {
    OFFSET 0.000000 -39.417092 -0.003189
    CHANNELS 3 Yrotation Xrotation Zrotation
    JOINT LeftToe
    {
     OFFSET 0.000000 -7.579396 17.243563
     CHANNELS 3 Yrotation Xrotation Zrotation
     End Site
     {
      OFFSET 0.000000 -1.500329 6.694466
     }
    }
   }
  }
 }
}
MOTION
Frames: 14
Frame Time: 0.008333
14.565638 87.815605 7.637425 100.303913 -7.179587 5.445369 0.813027 7.773338 2.126417 0.387169 4.481822 1.051115 0.497230 5.601125 1.319660 0.387162 4.481863 1.051125 1.809647 18.515655 -2.526729 2.499785 -6.139179 -3.098082 -6.729556 2.018562 -8.161609 0.580874 25.807578 83.830604 46.816061 14.621400 28.897577 -6.059168 0.480287 0.004556 -3.919759 0.240417 1.798541 -1.292641 15.957699 -72.430608 -43.536177 23.054796 -36.125733 8.161130 11.515561 -2.866176 10.327232 3.313863 -16.706296 1.867232 11.228456 2.293867 -6.563267 -5.911583 10.125538 -0.112483 0.458434 -0.384064 -14.997037 1.191349 1.458953 -7.256794 6.518052 -0.978607 -12.008649 -5.871642 -6.139838 -0.069573 -0.416413 -0.011195
14.599397 87.795682 8.074228 101.175496 -7.134284 5.459912 0.923811 7.775442 2.251473 0.439734 4.485940 1.074497 0.563286 5.606089 1.349562 0.439727 4.485981 1.074507 2.052236 18.337960 -2.522140 2.757070 -6.328631 -3.149180 -6.772367 1.936102 -8.171104 0.704463 25.909974 83.929793 46.821536 14.571537 28.837407 -6.099491 0.574400 0.027181 -3.974155 0.311696 1.825208 -1.282854 15.836579 -72.478772 -43.387794 23.015785 -36.175692 8.151932 11.424476 -2.962540 9.785403 3.510055 -16.524071 1.532708 10.902208 2.258596 -6.590848 -5.948795 9.933978 -0.120420 0.543424 -0.389962 -14.990916 0.969150 1.754213 -7.392188 6.511874 -0.924631 -12.534709 -5.802044 -6.491327 -0.103257 -0.523326 -0.019601
14.637445 87.781049 8.515003 102.025029 -7.065890 5.448808 1.041115 7.768489 2.389540 0.494015 4.486904 1.101605 0.631526 5.607091 1.384141 0.494011 4.486945 1.101615 2.281582 18.154795 -2.515482 2.999978 -6.523600 -3.195183 -6.816392 1.854044 -8.202694 0.864086 25.989048 84.047888 46.818988 14.524802 28.773084 -6.148839 0.687585 0.051357 -4.022586 0.370176 1.861328 -1.246129 15.703295 -72.558434 -43.196609 22.998908 -36.238106 8.196521 11.343989 -3.081707 9.211931 3.655448 -16.315809 1.167583 10.583402 2.214401 -6.529491 -6.021949 9.780657 -0.169776 0.671750 -0.437498 -14.894747 0.711841 2.070007 -7.566435 6.546505 -0.868022 -12.985768 -5.726291 -6.850072 -0.136676 -0.647454 -0.019666
14.684060 87.771690 8.952196 102.859791 -6.997047 5.435372 1.150038 7.772480 2.516328 0.550480 4.483881 1.131619 0.702521 5.603092 1.422375 0.550479 4.483923 1.131630 2.494903 17.970383 -2.503673 3.224802 -6.719730 -3.232120 -6.866968 1.757966 -8.254960 1.060859 26.056767 84.178617 46.804707 14.492941 28.708646 -6.212125 0.813701 0.080411 -4.066451 0.418106 1.906922 -1.195027 15.574168 -72.671963 -42.966755 22.995195 -36.306842 8.282888 11.273388 -3.209662 8.625702 3.792920 -16.102098 0.819753 10.254195 2.175565 -6.471238 -6.084249 9.637036 -0.228667 0.804822 -0.493215 -14.704250 0.425206 2.397146 -7.768834 6.634230 -0.810154 -13.469115 -5.711452 -7.222712 -0.171961 -0.746117 -0.013386
14.737864 87.765831 9.388403 103.652809 -6.903643 5.394976 1.277916 7.760276 2.660861 0.608243 4.477102 1.162565 0.775136 5.594380 1.461780 0.608244 4.477142 1.162576 2.693461 17.788037 -2.483723 3.432166 -6.913553 -3.257068 -6.917143 1.641745 -8.323365 1.276454 26.125120 84.311650 46.785575 14.491808 28.653176 -6.299449 0.945676 0.115883 -4.108541 0.459164 1.963544 -1.130198 15.470260 -72.822316 -42.715436 22.987211 -36.375015 8.403069 11.215205 -3.324258 8.079420 3.909084 -15.857696 0.506797 9.906658 2.145731 -6.424466 -6.175267 9.491394 -0.314354 0.976542 -0.547909 -14.399102 0.092142 2.785449 -7.967565 6.768465 -0.751120 -14.046063 -5.727050 -7.611269 -0.225090 -0.858153 -0.011802
14.801665 87.764020 9.815008 104.426073 -6.811894 5.356927 1.396893 7.754022 2.792105 0.664328 4.466711 1.192540 0.845627 5.581149 1.499939 0.664332 4.466747 1.192550 2.881023 17.607760 -2.453117 3.625470 -7.105122 -3.268185 -6.952728 1.506327 -8.397956 1.487240 26.205498 84.434869 46.776487 14.527369 28.611512 -6.421438 1.081728 0.160503 -4.146809 0.495616 2.028792 -1.055637 15.399193 -72.997364 -42.457269 22.963574 -36.436589 8.543845 11.163998 -3.414780 7.556896 4.035082 -15.611417 0.220248 9.543246 2.122136 -6.406937 -6.244418 9.320329 -0.385734 1.137548 -0.576686 -14.016089 -0.270672 3.190455 -8.123522 6.961538 -0.693911 -14.667854 -5.828460 -8.000594 -0.286107 -0.933946 -0.019583
14.868844 87.765690 10.232552 105.175288 -6.682452 5.313491 1.523843 7.715280 2.920384 0.716014 4.452336 1.220149 0.910568 5.562948 1.535072 0.716020 4.452367 1.220158 3.058651 17.426740 -2.411780 3.805778 -7.297555 -3.265593 -6.965652 1.355593 -8.467568 1.690625 26.307410 84.541731 46.785610 14.582427 28.576975 -6.578569 1.221271 0.217394 -4.190815 0.527745 2.098414 -0.978153 15.365702 -73.185024 -42.198239 22.921553 -36.484184 8.683924 11.110639 -3.479087 7.079638 4.133612 -15.357750 -0.055154 9.171100 2.098471 -6.402309 -6.336456 9.137844 -0.464644 1.323964 -0.594182 -13.548314 -0.677495 3.593057 -8.209574 7.204181 -0.641172 -15.096313 -5.981582 -8.360360 -0.335098 -0.965819 -0.044049
14.939481 87.773173 10.630137 105.938008 -6.541742 5.308317 1.619333 7.671146 3.005506 0.761782 4.433347 1.244148 0.968044 5.539000 1.565599 0.761792 4.433373 1.244155 3.225522 17.241833 -2.363375 3.973027 -7.494231 -3.252989 -6.955593 1.198989 -8.524587 1.897811 26.425485 84.625272 46.806780 14.631353 28.535930 -6.759311 1.357539 0.285645 -4.245246 0.554404 2.166009 -0.903398 15.372490 -73.378661 -41.940710 22.863392 -36.510379 8.799541 11.039400 -3.513838 6.619275 4.237016 -15.139981 -0.321865 8.790905 2.069174 -6.453528 -6.405728 8.945241 -0.515147 1.494060 -0.592487 -13.040548 -1.100733 3.908849 -8.199246 7.503048 -0.598157 -15.142893 -6.214294 -8.651407 -0.343245 -0.893549 -0.093229
15.023089 87.788902 11.006887 106.756908 -6.457259 5.309704 1.638937 7.686681 3.076136 0.801960 4.410138 1.265143 1.018470 5.509799 1.592285 0.801972 4.410160 1.265149 3.380971 17.048321 -2.311226 4.127245 -7.700209 -3.233749 -6.927165 1.043950 -8.567964 2.119365 26.545060 84.684444 46.829209 14.655389 28.482507 -6.950253 1.488224 0.362923 -4.299828 0.573274 2.228277 -0.838552 15.408773 -73.573956 -41.681570 22.798843 -36.524900 8.870695 10.924798 -3.503440 6.150449 4.354564 -14.913309 -0.568172 8.543797 2.073588 -6.657150 -6.539787 8.680110 -0.446968 1.652946 -0.536281 -12.556718 -1.470384 4.181976 -8.063605 7.844051 -0.565272 -14.928510 -6.510186 -8.854976 -0.326612 -0.737990 -0.191050
15.094729 87.812811 11.360090 107.526170 -6.286989 5.373591 1.693856 7.626607 3.078871 0.836565 4.383768 1.284485 1.061888 5.476664 1.616821 0.836579 4.383785 1.284490 3.524226 16.845565 -2.257097 4.267995 -7.916144 -3.209570 -6.890751 0.897918 -8.603273 2.365558 26.652287 84.728596 46.840715 14.640358 28.424372 -7.137725 1.618104 0.450160 -4.347847 0.580439 2.288706 -0.783846 15.465597 -73.772669 -41.412316 22.737031 -36.541610 8.877063 10.757575 -3.426403 5.754899 4.471281 -14.775644 -0.784777 8.132187 2.054369 -6.821226 -6.584507 8.490336 -0.466904 1.802654 -0.521595 -11.984888 -1.926153 4.409671 -7.770038 8.209518 -0.532745 -14.544290 -6.826085 -8.965947 -0.303698 -0.533081 -0.342692
15.166697 87.847251 11.690592 108.305078 -6.111738 5.457302 1.727853 7.554578 3.049223 0.864357 4.354689 1.303564 1.096768 5.440167 1.640934 0.864372 4.354702 1.303567 3.652987 16.640289 -2.201378 4.392891 -8.134819 -3.180330 -6.859605 0.764755 -8.634194 2.629797 26.739539 84.758998 46.822990 14.585319 28.371246 -7.302809 1.746803 0.536648 -4.390119 0.575053 2.348477 -0.738182 15.537881 -73.975794 -41.117702 22.682346 -36.563071 8.802205 10.550393 -3.268527 5.378700 4.603453 -14.671549 -0.973827 7.696172 2.048269 -7.021843 -6.596172 8.304663 -0.476522 1.922407 -0.505436 -11.372707 -2.367437 4.587079 -7.276188 8.598365 -0.485029 -13.902646 -7.167931 -8.997060 -0.266621 -0.259600 -0.520715
15.240857 87.893026 11.999749 109.091475 -5.943449 5.543615 1.744146 7.471558 3.001251 0.886463 4.323514 1.323894 1.124536 5.401065 1.666534 0.886478 4.323524 1.323897 3.763511 16.440403 -2.142694 4.497521 -8.347920 -3.143632 -6.839513 0.632513 -8.659055 2.891206 26.819540 84.773500 46.762037 14.503021 28.327157 -7.423764 1.865590 0.608891 -4.427139 0.558349 2.405049 -0.704119 15.619605 -74.182368 -40.785801 22.654637 -36.590602 8.629264 10.298651 -3.027307 5.021367 4.756726 -14.579594 -1.157326 7.243160 2.051043 -7.240870 -6.565810 8.122098 -0.475753 2.001177 -0.487940 -10.678585 -2.769546 4.715579 -6.547052 9.004017 -0.408503 -12.993610 -7.522660 -8.998017 -0.216309 0.077361 -0.674301
15.320597 87.950383 12.288986 109.867192 -5.799984 5.618000 1.753347 7.388013 2.949828 0.904883 4.291488 1.345894 1.147705 5.360905 1.694171 0.904897 4.291495 1.345895 3.854503 16.250802 -2.080439 4.580276 -8.550314 -3.098484 -6.823832 0.487785 -8.677046 3.130681 26.909169 84.773719 46.652065 14.400626 28.292823 -7.489337 1.965131 0.662638 -4.456215 0.524736 2.447718 -0.684960 15.715940 -74.386094 -40.409802 22.665881 -36.616582 8.346800 9.989317 -2.719144 4.701673 4.941993 -14.475880 -1.358807 6.786983 2.056728 -7.469562 -6.489548 7.943741 -0.465819 2.031427 -0.470575 -9.840287 -3.123176 4.824789 -5.590135 9.433004 -0.299002 -11.930134 -7.875852 -9.071803 -0.172975 0.438461 -0.729522
15.407315 88.018872 12.559471 110.626266 -5.689562 5.673649 1.757642 7.307883 2.901693 0.920274 4.259707 1.369687 1.167103 5.321059 1.724015 0.920286 4.259713 1.369687 3.926269 16.072940 -2.013220 4.641073 -8.740549 -3.043429 -6.806931 0.330218 -8.683827 3.329082 27.013067 84.756441 46.490532 14.285065 28.267014 -7.495003 2.034585 0.696850 -4.479087 0.468815 2.462266 -0.686641 15.839204 -74.581442 -39.985099 22.705330 -36.621220 7.973253 9.633690 -2.375580 4.426404 5.163918 -14.350404 -1.587001 6.335242 2.062143 -7.701311 -6.366174 7.770929 -0.446021 2.009683 -0.453045 -8.810708 -3.423177 4.881862 -4.438715 9.907363 -0.155290 -10.568735 -8.225812 -9.243099 -0.119591 0.829236 -0.660172
